Patient4_TMGait_0pt4_03_left_03_GRF.mot
version=1
nRows=45
nColumns=19
inDegrees=no
endheader
time	F1x	F1y	F1z	M1x	M1y	M1z	F2x	F2y	F2z	M2x	M2y	M2z	EC1x	EC1y	EC1z	EC2x	EC2y	EC2z
3.47	-5.4497	14.4673	5.3751	-3.3589	-6.4561	17.6941	-42.6309	691.2686	-61.7485	237.5681	82.6436	744.6372	-0.0592	0.0182	-0.0073	-0.0462	0.0165	0.9585
3.4834	-3.5807	10.4108	3.5637	-2.4989	-4.2529	12.6643	-38.2432	689.9049	-63.8804	236.8401	81.808	741.9022	-0.0592	0.0182	-0.0073	-0.0462	0.0165	0.9585
3.4967	-2.0006	7.0248	2.0549	-1.7794	-2.4118	8.4599	-34.0976	690.08	-65.5146	236.676	80.6885	740.0934	-0.0592	0.0182	-0.0073	-0.0462	0.0165	0.9585
3.5101	-0.79998	4.4894	0.92011	-1.2409	-1.0231	5.2943	-30.3909	692.686	-66.5966	237.4351	79.3788	740.1188	-0.0592	0.0182	-0.0073	-0.0462	0.0165	0.9585
3.5234	0.010334	2.7747	0.14932	-0.87732	-0.080839	3.1378	-27.1422	698.2987	-67.1606	239.3623	77.9399	742.5979	-0.0592	0.0182	-0.0073	-0.0462	0.0165	0.9585
3.5368	0.48493	1.7315	-0.31548	-0.65574	0.47923	1.8097	-24.2659	707.0795	-67.2794	242.5458	76.3981	747.742	-0.0592	0.0182	-0.0073	-0.0462	0.0165	0.9585
3.5501	0.69709	1.1646	-0.5437	-0.53232	0.73571	1.0737	-21.6222	718.7104	-67.0215	246.8933	74.731	755.2604	-0.0592	0.0182	-0.0073	-0.0462	0.0165	0.9585
3.5635	0.71377	0.87687	-0.60044	-0.45962	0.76388	0.7066	-19.0374	732.4378	-66.4683	252.14	72.9052	764.4126	-0.0592	0.0182	-0.0073	-0.0462	0.0165	0.9585
3.5769	0.60669	0.66804	-0.54189	-0.38512	0.63894	0.46803	-16.3253	747.2037	-65.6982	257.8932	70.8834	774.1648	-0.0592	0.0182	-0.0073	-0.0462	0.0165	0.9585
3.5902	0.41106	0.36464	-0.4097	-0.2594	0.41416	0.14278	-13.3579	761.7522	-64.789	263.6774	68.6529	783.3093	-0.0592	0.0182	-0.0073	-0.0462	0.0165	0.9585
3.6036	0.18011	-0.1845	-0.24172	-0.040178	0.14339	-0.4712	-10.1036	774.82	-63.8125	269.0026	66.2411	790.6762	-0.0592	0.0182	-0.0073	-0.0462	0.0165	0.9585
3.6169	-0.060704	-1.0998	-0.064007	0.3066	-0.13484	-1.5095	-6.6229	785.2993	-62.8341	273.4226	63.7231	795.3086	-0.0592	0.0182	-0.0073	-0.0462	0.0165	0.9585
3.6303	-0.27305	-2.4354	0.092617	0.79357	-0.37466	-3.0273	-3.0722	792.2818	-61.9297	276.5567	61.2289	796.4935	-0.0592	0.0182	-0.0073	-0.0462	0.0165	0.9585
3.6436	-0.39569	-4.1481	0.20676	1.4017	-0.52896	-4.9759	0.36407	795.1093	-61.1921	278.117	58.9206	793.7781	-0.0592	0.0182	-0.0073	-0.0462	0.0165	0.9585
3.657	-0.35119	-6.0455	0.23549	2.0625	-0.52342	-7.1252	3.5442	793.4894	-60.7274	277.9579	56.9621	787.0466	-0.0592	0.0182	-0.0073	-0.0462	0.0165	0.9585
3.6704	-0.020221	-7.7369	0.13067	2.6381	-0.26195	-9.0269	6.3869	787.6027	-60.6135	276.1235	55.4683	776.5918	-0.0592	0.0182	-0.0073	-0.0462	0.0165	0.9585
3.6837	0.7302	-8.5196	-0.17666	2.8858	0.37741	-9.8885	8.8772	778.1109	-60.8847	272.8542	54.4877	763.1015	-0.0592	0.0182	-0.0073	-0.0462	0.0165	0.9585
3.6971	2.0625	-7.3716	-0.76069	2.4475	1.5328	-8.5767	11.0728	766.0389	-61.5096	268.5422	53.9766	747.5534	-0.0592	0.0182	-0.0073	-0.0462	0.0165	0.9585
3.7104	4.1177	-2.9199	-1.6905	0.83861	3.3315	-3.5564	13.0686	752.5325	-62.4091	263.6358	53.8292	731.0102	-0.0592	0.0182	-0.0073	-0.0462	0.0165	0.9585
3.7238	6.9703	6.5295	-3.0119	-2.5379	5.8489	7.0735	14.9598	738.5511	-63.4426	258.5247	53.8833	714.3455	-0.0592	0.0182	-0.0073	-0.0462	0.0165	0.9585
3.7371	10.5634	22.7779	-4.7055	-8.3187	9.0379	25.3392	16.7831	724.6323	-64.4331	253.4441	53.9595	698.0492	-0.0592	0.0182	-0.0073	-0.0462	0.0165	0.9585
3.7505	14.5794	47.3995	-6.6429	-17.0568	12.6305	53.0319	18.5091	710.7759	-65.1459	248.4249	53.8493	682.1287	-0.0592	0.0182	-0.0073	-0.0462	0.0165	0.9585
3.7639	18.3407	81.1342	-8.5077	-29.0046	16.022	90.989	20.0213	696.4578	-65.3275	243.2954	53.36	666.1264	-0.0592	0.0182	-0.0073	-0.0462	0.0165	0.9585
3.7772	20.6747	123.0036	-9.7457	-43.8034	18.1653	138.1209	21.1166	680.777	-64.719	237.7349	52.3245	649.2527	-0.0592	0.0182	-0.0073	-0.0462	0.0165	0.9585
3.7906	20.152	169.4445	-9.5643	-60.1651	17.6651	190.4422	21.5822	662.7358	-63.1406	231.3753	50.6608	630.6345	-0.0592	0.0182	-0.0073	-0.0462	0.0165	0.9585
3.8039	16.56	214.8126	-7.1779	-76.0395	13.6083	241.6527	21.2696	641.6275	-60.5436	223.9488	48.3847	609.6516	-0.0592	0.0182	-0.0073	-0.0462	0.0165	0.9585
3.8173	11.2354	254.1	-2.7887	-89.6537	6.7561	286.011	20.2057	617.4152	-57.0867	215.4294	45.6343	586.2283	-0.0592	0.0182	-0.0073	-0.0462	0.0165	0.9585
3.8306	5.6681	285.471	2.7183	-100.3844	-1.3742	321.2785	18.6421	590.8083	-53.1107	206.0581	42.6213	560.9158	-0.0592	0.0182	-0.0073	-0.0462	0.0165	0.9585
3.844	0.73932	309.5285	8.6085	-108.4799	-9.6323	348.0741	17.0086	562.7676	-49.0205	196.1745	39.5452	534.4504	-0.0592	0.0182	-0.0073	-0.0462	0.0165	0.9585
3.8574	-3.167	327.9805	14.1139	-114.5907	-17.0379	368.3214	15.6855	534.0558	-45.0558	186.0584	36.4735	507.3913	-0.0592	0.0182	-0.0073	-0.0462	0.0165	0.9585
3.8707	-6.137	342.8593	18.8014	-119.4648	-23.131	384.3847	14.9168	505.0334	-41.278	175.8531	33.3719	479.9771	-0.0592	0.0182	-0.0073	-0.0462	0.0165	0.9585
3.8841	-8.3509	355.9734	22.328	-123.7679	-27.6179	398.2941	14.7752	475.7046	-37.5846	165.5773	30.1236	452.1724	-0.0592	0.0182	-0.0073	-0.0462	0.0165	0.9585
3.8974	-10.0022	368.8997	24.7289	-128.0554	-30.6121	411.7957	15.1606	445.8109	-33.8584	155.1493	26.6581	423.7366	-0.0592	0.0182	-0.0073	-0.0462	0.0165	0.9585
3.9108	-11.1755	383.0563	26.2463	-132.8043	-32.4235	426.4183	15.8863	414.9313	-30.0187	144.4217	22.9693	394.2892	-0.0592	0.0182	-0.0073	-0.0462	0.0165	0.9585
3.9241	-11.8775	399.6515	27.3689	-138.4041	-33.5906	443.4491	16.6869	382.6415	-26.1033	133.2335	19.1785	363.4788	-0.0592	0.0182	-0.0073	-0.0462	0.0165	0.9585
3.9375	-12.2234	419.6047	28.6143	-145.1374	-34.7077	463.8423	17.292	348.6178	-22.2203	121.4548	15.4681	331.0405	-0.0592	0.0182	-0.0073	-0.0462	0.0165	0.9585
3.9509	-12.3624	443.5642	30.483	-153.1996	-36.356	488.2167	17.4091	312.7779	-18.5201	109.0383	12.0655	296.9381	-0.0592	0.0182	-0.0073	-0.0462	0.0165	0.9585
3.9642	-12.4344	472.1715	33.2513	-162.793	-38.8782	517.2117	16.7971	275.3989	-15.1375	96.0662	9.1712	261.4605	-0.0592	0.0182	-0.0073	-0.0462	0.0165	0.9585
3.9776	-12.4523	506.0104	36.9307	-174.1173	-42.296	551.3792	15.3408	237.1715	-12.1696	82.7741	6.9163	225.2646	-0.0592	0.0182	-0.0073	-0.0462	0.0165	0.9585
3.9909	-12.4157	545.2573	41.3696	-187.2323	-46.4528	590.857	13.0547	199.1691	-9.6446	69.5382	5.3285	189.3572	-0.0592	0.0182	-0.0073	-0.0462	0.0165	0.9585
4.0043	-12.332	589.2767	46.3713	-201.9138	-51.1466	634.957	10.1469	162.6836	-7.5354	56.8161	4.3195	154.9143	-0.0592	0.0182	-0.0073	-0.0462	0.0165	0.9585
4.0176	-12.2185	636.5195	51.7666	-217.6126	-56.2096	682.0737	6.9352	129.011	-5.8062	45.0642	3.7506	123.1211	-0.0592	0.0182	-0.0073	-0.0462	0.0165	0.9585
4.031	-12.1516	684.6134	57.3415	-233.4963	-61.449	729.7832	3.7794	99.1517	-4.4138	34.637	3.4613	94.883	-0.0592	0.0182	-0.0073	-0.0462	0.0165	0.9585
4.0444	-12.1774	730.6696	62.8647	-248.5622	-66.655	775.1428	0.97283	73.6663	-3.321	25.7341	3.3222	70.7155	-0.0592	0.0182	-0.0073	-0.0462	0.0165	0.9585
4.0577	-12.3504	771.7777	68.0221	-261.8112	-71.537	815.2268	-1.2819	52.6616	-2.4618	18.3955	3.2113	50.7341	-0.0592	0.0182	-0.0073	-0.0462	0.0165	0.9585
